<svg width="400" height="400" viewBox="0 0 400 400" fill="none" xmlns="http://www.w3.org/2000/svg">
<rect width="400" height="400" fill="white"/>
<path d="M195.366 274.849L240.808 262.565C241.745 262.312 242.757 263.066 243.069 264.25C243.38 265.433 242.872 266.598 241.936 266.851L196.493 279.135C195.557 279.388 194.544 278.634 194.233 277.451C193.921 276.267 194.429 275.102 195.366 274.849Z" fill="#008E50"/>
<path d="M195.28 263.714L235.335 252.881C236.214 252.643 237.165 253.351 237.457 254.462C237.749 255.573 237.272 256.667 236.393 256.904L196.339 267.737C195.459 267.975 194.509 267.267 194.217 266.156C193.924 265.045 194.401 263.952 195.28 263.714Z" fill="#008E50"/>
<path d="M157.174 132.282L202.616 119.998C203.553 119.745 204.566 120.499 204.877 121.682C205.189 122.866 204.681 124.031 203.744 124.284L158.302 136.568C157.365 136.821 156.353 136.067 156.041 134.883C155.73 133.7 156.238 132.535 157.174 132.282Z" fill="#008E50"/>
<path d="M162.735 142.216L202.789 131.383C203.669 131.146 204.619 131.853 204.911 132.964C205.204 134.075 204.727 135.169 203.847 135.407L163.793 146.24C162.914 146.478 161.963 145.77 161.671 144.659C161.379 143.548 161.856 142.454 162.735 142.216Z" fill="#008E50"/>
<path d="M175.859 191.409L216.228 180.491C217.112 180.252 218.066 180.962 218.359 182.077C218.652 183.193 218.174 184.29 217.29 184.529L176.92 195.447C176.037 195.686 175.083 194.976 174.79 193.861C174.497 192.746 174.975 191.648 175.859 191.409Z" fill="#008E50"/>
<path d="M182.113 214.725L222.482 203.807C223.366 203.568 224.319 204.278 224.613 205.393C224.906 206.509 224.428 207.606 223.544 207.845L183.174 218.763C182.291 219.002 181.337 218.292 181.044 217.177C180.75 216.061 181.229 214.964 182.113 214.725Z" fill="#008E50"/>
<path d="M177.313 203.185C177.317 203.184 177.323 203.182 177.328 203.181L220.804 191.947C221.719 191.711 222.699 192.455 222.992 193.608C223.285 194.756 222.789 195.876 221.884 196.121C221.88 196.122 221.874 196.124 221.869 196.125L178.393 207.358C177.478 207.595 176.498 206.851 176.205 205.698C175.912 204.55 176.408 203.43 177.313 203.185Z" fill="#008E50"/>
<path d="M174.211 178.299C180.137 160.897 187.568 152.869 193.553 146.413C194.08 145.845 194.589 145.298 195.075 144.757C201.396 137.849 205.004 132.606 202.93 116.151C202.65 113.915 203.712 112.006 205.366 111.557C205.55 111.507 205.749 111.468 205.956 111.459C207.949 111.358 209.807 113.275 210.119 115.77C212.605 135.573 207.699 143.418 201.229 150.697C200.403 151.63 199.55 152.554 198.678 153.498C192.885 159.744 186.322 166.813 180.964 182.582C177.953 191.454 178.952 202.743 183.661 212.787C189.514 225.305 200.061 233.998 213.334 237.279C218.034 238.44 222.16 239.945 225.77 241.685C245.404 251.132 249.961 267.1 250.169 267.893C250.833 270.324 249.814 272.724 247.926 273.269L247.891 273.278C246.018 273.787 243.973 272.282 243.305 269.884C243.093 269.172 239.029 256.058 220.844 248.701C218.405 247.713 215.697 246.829 212.711 246.099C197.084 242.247 184.567 231.776 177.464 216.61C171.562 203.996 170.347 189.683 174.211 178.299Z" fill="#008E50"/>
<path d="M151.284 126.225C152.934 125.777 154.793 126.9 155.643 128.972C162.416 145.479 168.52 147.349 178.634 150.448C186.98 153.004 197.368 156.187 211.044 168.269C219.978 176.163 225.951 189.189 227.022 203.115C228.31 219.857 222.602 235.284 210.952 246.554C192.147 264.746 195.946 281.974 196.116 282.698C196.681 285.095 195.653 287.418 193.798 287.922C193.774 287.929 193.75 287.935 193.726 287.941C191.826 288.404 189.806 286.859 189.189 284.443C188.947 283.497 183.534 261.036 206.082 239.221C215.98 229.647 220.845 216.763 219.782 202.944C218.929 191.855 214.258 181.558 207.287 175.398C194.904 164.458 185.747 161.652 177.667 159.178C166.986 155.906 157.762 153.08 149.232 132.291C148.284 129.979 148.95 127.362 150.72 126.446C150.904 126.351 151.092 126.277 151.284 126.225Z" fill="white"/>
</svg>
